<?xml version="1.0" encoding="UTF-8" standalone="no"?>
<!-- Created with Inkscape (http://www.inkscape.org/) -->

<svg
   version="1.1"
   id="svg1"
   width="341.33334"
   height="341.33334"
   viewBox="0 0 341.33334 341.33334"
   sodipodi:docname="icon-v5.svg"
   inkscape:version="1.3.2 (091e20ef0f, 2023-11-25, custom)"
   xmlns:inkscape="http://www.inkscape.org/namespaces/inkscape"
   xmlns:sodipodi="http://sodipodi.sourceforge.net/DTD/sodipodi-0.dtd"
   xmlns="http://www.w3.org/2000/svg"
   xmlns:svg="http://www.w3.org/2000/svg">
  <sodipodi:namedview
     id="namedview1"
     pagecolor="#ffffff"
     bordercolor="#000000"
     borderopacity="0.25"
     inkscape:showpageshadow="2"
     inkscape:pageopacity="0.0"
     inkscape:pagecheckerboard="0"
     inkscape:deskcolor="#d1d1d1"
     inkscape:zoom="2.4023437"
     inkscape:cx="170.45854"
     inkscape:cy="170.66667"
     inkscape:window-width="1920"
     inkscape:window-height="1024"
     inkscape:window-x="0"
     inkscape:window-y="0"
     inkscape:window-maximized="1"
     inkscape:current-layer="svg1" />
  <defs
     id="defs1">
    <clipPath
       clipPathUnits="userSpaceOnUse"
       id="clipPath3">
      <path
         d="M 0,256 H 256 V 0 H 0 Z"
         transform="translate(-30.731401,-253.00271)"
         id="path3" />
    </clipPath>
    <clipPath
       clipPathUnits="userSpaceOnUse"
       id="clipPath5">
      <path
         d="M 0,256 H 256 V 0 H 0 Z"
         transform="translate(-31.293401,-250.94671)"
         id="path5" />
    </clipPath>
    <clipPath
       clipPathUnits="userSpaceOnUse"
       id="clipPath7">
      <path
         d="M 0,256 H 256 V 0 H 0 Z"
         transform="translate(-171.0654,-220.96561)"
         id="path7" />
    </clipPath>
    <clipPath
       clipPathUnits="userSpaceOnUse"
       id="clipPath9">
      <path
         d="M 0,256 H 256 V 0 H 0 Z"
         transform="translate(-171.0655,-107.3444)"
         id="path9" />
    </clipPath>
    <clipPath
       clipPathUnits="userSpaceOnUse"
       id="clipPath11">
      <path
         d="M 0,256 H 256 V 0 H 0 Z"
         transform="translate(-171.0654,-110.7784)"
         id="path11" />
    </clipPath>
    <clipPath
       clipPathUnits="userSpaceOnUse"
       id="clipPath13">
      <path
         d="M 0,256 H 256 V 0 H 0 Z"
         transform="translate(-57.430102,-69.462199)"
         id="path13" />
    </clipPath>
    <clipPath
       clipPathUnits="userSpaceOnUse"
       id="clipPath15">
      <path
         d="M 0,256 H 256 V 0 H 0 Z"
         transform="translate(-171.06681,-69.462199)"
         id="path15" />
    </clipPath>
    <clipPath
       clipPathUnits="userSpaceOnUse"
       id="clipPath17">
      <path
         d="M 0,256 H 256 V 0 H 0 Z"
         transform="translate(-171.06681,-183.0692)"
         id="path17" />
    </clipPath>
    <clipPath
       clipPathUnits="userSpaceOnUse"
       id="clipPath19">
      <path
         d="M 0,256 H 256 V 0 H 0 Z"
         transform="translate(-133.1976,-220.95571)"
         id="path19" />
    </clipPath>
    <clipPath
       clipPathUnits="userSpaceOnUse"
       id="clipPath21">
      <path
         d="M 0,256 H 256 V 0 H 0 Z"
         transform="translate(-95.318102,-220.95571)"
         id="path21" />
    </clipPath>
    <clipPath
       clipPathUnits="userSpaceOnUse"
       id="clipPath23">
      <path
         d="M 0,256 H 256 V 0 H 0 Z"
         transform="translate(-171.06681,-183.0692)"
         id="path23" />
    </clipPath>
    <clipPath
       clipPathUnits="userSpaceOnUse"
       id="clipPath25">
      <path
         d="M 0,256 H 256 V 0 H 0 Z"
         transform="translate(-57.430102,-183.0828)"
         id="path25" />
    </clipPath>
    <clipPath
       clipPathUnits="userSpaceOnUse"
       id="clipPath27">
      <path
         d="M 0,256 H 256 V 0 H 0 Z"
         transform="translate(-57.430102,-220.95571)"
         id="path27" />
    </clipPath>
    <clipPath
       clipPathUnits="userSpaceOnUse"
       id="clipPath29">
      <path
         d="M 0,256 H 256 V 0 H 0 Z"
         transform="translate(-57.438601,-183.0828)"
         id="path29" />
    </clipPath>
    <clipPath
       clipPathUnits="userSpaceOnUse"
       id="clipPath31">
      <path
         d="M 0,256 H 256 V 0 H 0 Z"
         transform="translate(-57.430102,-145.2061)"
         id="path31" />
    </clipPath>
    <clipPath
       clipPathUnits="userSpaceOnUse"
       id="clipPath34">
      <path
         d="M 0,256 H 256 V 0 H 0 Z"
         transform="translate(-189.9229,-69.336904)"
         id="path34" />
    </clipPath>
    <clipPath
       clipPathUnits="userSpaceOnUse"
       id="clipPath36">
      <path
         d="M 0,256 H 256 V 0 H 0 Z"
         transform="translate(-227.21001,-47.039104)"
         id="path36" />
    </clipPath>
    <clipPath
       clipPathUnits="userSpaceOnUse"
       id="clipPath39">
      <path
         d="M 0,256 H 256 V 0 H 0 Z"
         transform="translate(-189.9229,-69.336904)"
         id="path39" />
    </clipPath>
    <clipPath
       clipPathUnits="userSpaceOnUse"
       id="clipPath41">
      <path
         d="M 0,256 H 256 V 0 H 0 Z"
         transform="translate(-228.71781,-42.632801)"
         id="path41" />
    </clipPath>
    <clipPath
       clipPathUnits="userSpaceOnUse"
       id="clipPath43">
      <path
         d="M 0,256 H 256 V 0 H 0 Z"
         transform="translate(-133.2018,-107.3305)"
         id="path43" />
    </clipPath>
    <clipPath
       clipPathUnits="userSpaceOnUse"
       id="clipPath45">
      <path
         d="M 0,256 H 256 V 0 H 0 Z"
         transform="translate(-95.322302,-107.3305)"
         id="path45" />
    </clipPath>
    <clipPath
       clipPathUnits="userSpaceOnUse"
       id="clipPath47">
      <path
         d="M 0,256 H 256 V 0 H 0 Z"
         transform="translate(-57.434302,-107.3378)"
         id="path47" />
    </clipPath>
  </defs>
  <g
     id="layer-MC1">
    <path
       id="path2"
       d="m 0,0 h 194.537 c 15.311,0 27.724,-12.412 27.724,-27.723 v -194.538 c 0,-15.311 -12.413,-27.723 -27.724,-27.723 H 0 c -15.311,0 -27.723,12.412 -27.723,27.723 V -27.723 C -27.723,-12.412 -15.311,0 0,0"
       style="fill:#fffdfe;fill-opacity:1;fill-rule:nonzero;stroke:#ffffff;stroke-width:6;stroke-linecap:butt;stroke-linejoin:miter;stroke-miterlimit:10;stroke-dasharray:none;stroke-opacity:1"
       transform="matrix(1.3333333,0,0,-1.3333333,40.9752,3.9964)"
       clip-path="url(#clipPath3)" />
    <path
       id="path4"
       d="m 0,0 h 193.413 c 14.486,0 26.23,-11.743 26.23,-26.229 v -193.414 c 0,-14.486 -11.744,-26.229 -26.23,-26.229 H 0 c -14.486,0 -26.229,11.743 -26.229,26.229 V -26.229 C -26.229,-11.743 -14.486,0 0,0"
       style="fill:#231f20;fill-opacity:1;fill-rule:nonzero;stroke:none"
       transform="matrix(1.3333333,0,0,-1.3333333,41.724533,6.7377333)"
       clip-path="url(#clipPath5)" />
  </g>
  <g
     id="layer-MC2">
    <path
       id="path6"
       d="m 0,0 h 2.732 c 15.594,0 28.235,-12.641 28.235,-28.234 v -2.733 c 0,-1.911 -1.55,-3.461 -3.461,-3.461 H 0 c -1.911,0 -3.461,1.55 -3.461,3.461 V -3.461 C -3.461,-1.55 -1.911,0 0,0"
       style="fill:#ffffff;fill-opacity:1;fill-rule:nonzero;stroke:none"
       transform="matrix(1.3333333,0,0,-1.3333333,228.0872,46.712533)"
       clip-path="url(#clipPath7)" />
    <path
       id="path8"
       d="m 0,0 h 2.732 c 15.594,0 28.235,-12.641 28.235,-28.234 v -2.733 c 0,-1.911 -1.55,-3.461 -3.461,-3.461 H 0 c -1.911,0 -3.461,1.55 -3.461,3.461 V -3.461 C -3.461,-1.55 -1.911,0 0,0"
       style="fill:#ffffff;fill-opacity:1;fill-rule:nonzero;stroke:none"
       transform="matrix(1.3333333,0,0,-1.3333333,228.08733,198.20747)"
       clip-path="url(#clipPath9)" />
    <path
       id="path10"
       d="m 0,0 h 2.732 c 15.594,0 28.235,12.641 28.235,28.234 v 2.733 c 0,1.911 -1.55,3.461 -3.461,3.461 L 0,34.428 c -1.911,0 -3.461,-1.55 -3.461,-3.461 V 3.461 C -3.461,1.55 -1.911,0 0,0"
       style="fill:#ffffff;fill-opacity:1;fill-rule:nonzero;stroke:none"
       transform="matrix(1.3333333,0,0,-1.3333333,228.0872,193.6288)"
       clip-path="url(#clipPath11)" />
    <path
       id="path12"
       d="m 0,0 h 27.503 c 1.912,0 3.462,-1.55 3.462,-3.462 v -27.503 c 0,-1.913 -1.55,-3.463 -3.462,-3.463 H 0 c -1.912,0 -3.462,1.55 -3.462,3.463 V -3.462 C -3.462,-1.55 -1.912,0 0,0"
       style="fill:#ffffff;fill-opacity:1;fill-rule:nonzero;stroke:none"
       transform="matrix(1.3333333,0,0,-1.3333333,76.573467,248.71707)"
       clip-path="url(#clipPath13)" />
    <path
       id="path14"
       d="m 0,0 h 27.503 c 1.912,0 3.462,-1.55 3.462,-3.462 v -27.503 c 0,-1.913 -1.55,-3.463 -3.462,-3.463 H 0 c -1.912,0 -3.462,1.55 -3.462,3.463 V -3.462 C -3.462,-1.55 -1.912,0 0,0"
       style="fill:#ffffff;fill-opacity:1;fill-rule:nonzero;stroke:none"
       transform="matrix(1.3333333,0,0,-1.3333333,228.08907,248.71707)"
       clip-path="url(#clipPath15)" />
    <path
       id="path16"
       d="m 0,0 h 27.503 c 1.912,0 3.462,-1.55 3.462,-3.462 v -27.503 c 0,-1.913 -1.55,-3.463 -3.462,-3.463 H 0 c -1.912,0 -3.462,1.55 -3.462,3.463 V -3.462 C -3.462,-1.55 -1.912,0 0,0"
       style="fill:#ffffff;fill-opacity:1;fill-rule:nonzero;stroke:none"
       transform="matrix(1.3333333,0,0,-1.3333333,228.08907,97.241067)"
       clip-path="url(#clipPath17)" />
    <path
       id="path18"
       d="m 0,0 h 27.503 c 1.912,0 3.462,-1.55 3.462,-3.462 v -27.503 c 0,-1.913 -1.55,-3.463 -3.462,-3.463 H 0 c -1.912,0 -3.462,1.55 -3.462,3.463 V -3.462 C -3.462,-1.55 -1.912,0 0,0"
       style="fill:#ffffff;fill-opacity:1;fill-rule:nonzero;stroke:none"
       transform="matrix(1.3333333,0,0,-1.3333333,177.5968,46.725733)"
       clip-path="url(#clipPath19)" />
    <path
       id="path20"
       d="m 0,0 h 27.503 c 1.912,0 3.462,-1.55 3.462,-3.462 v -27.503 c 0,-1.913 -1.55,-3.463 -3.462,-3.463 H 0 c -1.912,0 -3.462,1.55 -3.462,3.463 V -3.462 C -3.462,-1.55 -1.912,0 0,0"
       style="fill:#ffffff;fill-opacity:1;fill-rule:nonzero;stroke:none"
       transform="matrix(1.3333333,0,0,-1.3333333,127.0908,46.725733)"
       clip-path="url(#clipPath21)" />
    <path
       id="path22"
       d="m 0,0 h 27.503 c 1.912,0 3.462,-1.55 3.462,-3.462 v -27.503 c 0,-1.913 -1.55,-3.463 -3.462,-3.463 H 0 c -1.912,0 -3.462,1.55 -3.462,3.463 V -3.462 C -3.462,-1.55 -1.912,0 0,0"
       style="fill:#ffffff;fill-opacity:1;fill-rule:nonzero;stroke:none"
       transform="matrix(1.3333333,0,0,-1.3333333,228.08907,97.241067)"
       clip-path="url(#clipPath23)" />
    <path
       id="path24"
       d="m 0,0 h 27.503 c 1.912,0 3.462,-1.55 3.462,-3.462 v -27.503 c 0,-1.913 -1.55,-3.463 -3.462,-3.463 H 0 c -1.912,0 -3.462,1.55 -3.462,3.463 V -3.462 C -3.462,-1.55 -1.912,0 0,0"
       style="fill:#ffffff;fill-opacity:1;fill-rule:nonzero;stroke:none"
       transform="matrix(1.3333333,0,0,-1.3333333,76.573467,97.222933)"
       clip-path="url(#clipPath25)" />
    <path
       id="path26"
       d="m 0,0 h 27.503 c 1.912,0 3.462,-1.55 3.462,-3.462 v -27.503 c 0,-1.913 -1.55,-3.463 -3.462,-3.463 H 0 c -1.912,0 -3.462,1.55 -3.462,3.463 V -3.462 C -3.462,-1.55 -1.912,0 0,0"
       style="fill:#ffffff;fill-opacity:1;fill-rule:nonzero;stroke:none"
       transform="matrix(1.3333333,0,0,-1.3333333,76.573467,46.725733)"
       clip-path="url(#clipPath27)" />
    <path
       id="path28"
       d="m 0,0 h 27.503 c 1.912,0 3.462,-1.55 3.462,-3.462 v -27.503 c 0,-1.913 -1.55,-3.463 -3.462,-3.463 H 0 c -1.912,0 -3.462,1.55 -3.462,3.463 V -3.462 C -3.462,-1.55 -1.912,0 0,0"
       style="fill:#ffffff;fill-opacity:1;fill-rule:nonzero;stroke:none"
       transform="matrix(1.3333333,0,0,-1.3333333,76.5848,97.222933)"
       clip-path="url(#clipPath29)" />
    <path
       id="path30"
       d="m 0,0 h 27.503 c 1.912,0 3.462,-1.55 3.462,-3.462 v -27.503 c 0,-1.913 -1.55,-3.463 -3.462,-3.463 H 0 c -1.912,0 -3.462,1.55 -3.462,3.463 V -3.462 C -3.462,-1.55 -1.912,0 0,0"
       style="fill:#ffffff;fill-opacity:1;fill-rule:nonzero;stroke:none"
       transform="matrix(1.3333333,0,0,-1.3333333,76.573467,147.7252)"
       clip-path="url(#clipPath31)" />
  </g>
  <g
     id="layer-MC3"
     style="display:none">
    <path
       id="path32"
       d="M 36.690411,-33.668113 H 23.95213 L 20.272442,-20.3922 c -0.960937,3.558159 -1.453125,6.030596 -1.6875,9.105018 h -0.304687 c -0.304688,-3.13892 -0.785157,-5.546859 -1.863282,-9.223265 L 12.491192,-33.668113 H -0.96193281 L 10.979473,3.1532532e-5 h 13.875 z m 37.277344,20.45673 c 0,-7.729053 -4.582032,-11.168966 -9.410157,-12.19019 4.945313,-1.268468 7.910157,-4.891126 7.910157,-10.556232 0,-7.127069 -6.035157,-12.491182 -16.476563,-12.491182 -10.863281,0 -15.808594,5.245866 -17.191406,11.340961 l 10.921875,3.740905 c 0.421875,-2.891676 2.53125,-4.762129 5.730469,-4.762129 2.53125,0 4.101562,1.741456 4.101562,3.977399 0,2.891677 -2.71875,4.224643 -6.09375,4.224643 -1.148437,0 -3.808594,0 -5.074219,0 v 10.857224 c 1.394532,0 5.25,0 6.222657,0 4.464843,0 6.515625,1.56946 6.515625,5.374864 0,2.536935 -3.140625,4.5256345 -6.644532,4.5256345 -2.894531,0 -5.730468,-1.9886995 -6.574218,-5.4931105 l -10.980469,4.7621291 c 2.167969,6.8260766 7.839844,11.2872132 17.800781,11.2872132 13.148438,0 19.242188,-5.4286121 19.242188,-14.5981293 z m 0,0"
       style="fill:#ce3f49;fill-opacity:1;fill-rule:nonzero;stroke:none"
       aria-label="v3"
       transform="matrix(1.3333333,0,0,1.4535253,204.31773,297.82027)" />
    <path
       id="path33"
       d="m 0,0 h -12.731 l -3.681,-14.471 c -0.965,-3.88 -1.447,-6.577 -1.69,-9.931 h -0.301 c -0.301,3.42 -0.784,6.051 -1.87,10.063 L -24.195,0 H -37.65 l 11.947,-36.702 h 13.877 z"
       style="fill:none;stroke:#231f20;stroke-width:1;stroke-linecap:butt;stroke-linejoin:miter;stroke-miterlimit:10;stroke-dasharray:none;stroke-opacity:1"
       transform="matrix(1.3333333,0,0,-1.3333333,253.23053,248.88413)"
       clip-path="url(#clipPath34)" />
    <path
       id="path35"
       d="m 0,0 c 0,8.42 -4.586,12.169 -9.412,13.287 4.947,1.381 7.903,5.327 7.903,11.51 0,7.762 -6.033,13.616 -16.471,13.616 -10.861,0 -15.808,-5.723 -17.196,-12.366 l 10.921,-4.078 c 0.422,3.157 2.534,5.196 5.732,5.196 2.534,0 4.103,-1.907 4.103,-4.341 0,-3.157 -2.716,-4.604 -6.095,-4.604 h -5.067 V 6.381 h 6.214 c 4.465,0 6.516,-1.711 6.516,-5.855 0,-2.762 -3.137,-4.932 -6.636,-4.932 -2.897,0 -5.733,2.17 -6.577,5.985 l -10.981,-5.196 c 2.172,-7.433 7.844,-12.3 17.799,-12.3 C -6.094,-15.917 0,-9.997 0,0 Z"
       style="fill:none;stroke:#231f20;stroke-width:1;stroke-linecap:butt;stroke-linejoin:miter;stroke-miterlimit:10;stroke-dasharray:none;stroke-opacity:1"
       transform="matrix(1.3333333,0,0,-1.3333333,302.94667,278.61453)"
       clip-path="url(#clipPath36)" />
    <path
       id="path37"
       d="M 36.690411,-33.668113 H 23.95213 L 20.272442,-20.3922 c -0.960937,3.558159 -1.453125,6.030596 -1.6875,9.105018 h -0.304687 c -0.304688,-3.13892 -0.785157,-5.546859 -1.863282,-9.223265 L 12.491192,-33.668113 H -0.96193281 L 10.979473,3.1532532e-5 h 13.875 z M 75.479473,-9.1694855 V -19.908463 h -5.613281 v -27.15381 h -13.875 L 37.768536,-20.091208 V -9.1694855 H 57.620098 V 3.1532532e-5 H 69.866192 V -9.1694855 Z M 57.620098,-19.908463 H 47.600567 l 10.019531,-15.32911 z m 0,0"
       style="fill:#0575bb;fill-opacity:1;fill-rule:nonzero;stroke:none"
       aria-label="v4"
       transform="matrix(1.3333333,0,0,1.4535253,204.31773,297.82027)" />
    <path
       id="path38"
       d="m 0,0 h -12.731 l -3.681,-14.471 c -0.965,-3.88 -1.447,-6.577 -1.69,-9.931 h -0.301 c -0.301,3.42 -0.784,6.051 -1.87,10.063 L -24.195,0 H -37.65 l 11.947,-36.702 h 13.877 z"
       style="fill:none;stroke:#231f20;stroke-width:1;stroke-linecap:butt;stroke-linejoin:miter;stroke-miterlimit:10;stroke-dasharray:none;stroke-opacity:1"
       transform="matrix(1.3333333,0,0,-1.3333333,253.23053,248.88413)"
       clip-path="url(#clipPath39)" />
    <path
       id="path40"
       d="M 0,0 V 11.708 H -5.61 V 41.306 H -19.488 L -37.709,11.905 V 0 h 19.85 V -9.998 H -5.61 l 0,9.998 z m -17.859,11.708 h -10.016 l 10.016,16.706 z"
       style="fill:none;stroke:#231f20;stroke-width:1;stroke-linecap:butt;stroke-linejoin:miter;stroke-miterlimit:10;stroke-dasharray:none;stroke-opacity:1"
       transform="matrix(1.3333333,0,0,-1.3333333,304.95707,284.4896)"
       clip-path="url(#clipPath41)" />
  </g>
  <g
     id="layer-MC4">
    <path
       id="path42"
       d="m 0,0 h 27.503 c 1.912,0 3.462,-1.55 3.462,-3.462 v -27.503 c 0,-1.913 -1.55,-3.463 -3.462,-3.463 H 0 c -1.912,0 -3.462,1.55 -3.462,3.463 V -3.462 C -3.462,-1.55 -1.912,0 0,0"
       style="fill:#e0c251;fill-opacity:1;fill-rule:nonzero;stroke:none"
       transform="matrix(1.3333333,0,0,-1.3333333,177.6024,198.226)"
       clip-path="url(#clipPath43)" />
    <path
       id="path44"
       d="m 0,0 h 27.503 c 1.912,0 3.462,-1.55 3.462,-3.462 v -27.503 c 0,-1.913 -1.55,-3.463 -3.462,-3.463 H 0 c -1.912,0 -3.462,1.55 -3.462,3.463 V -3.462 C -3.462,-1.55 -1.912,0 0,0"
       style="fill:#e0c251;fill-opacity:1;fill-rule:nonzero;stroke:none"
       transform="matrix(1.3333333,0,0,-1.3333333,127.0964,198.226)"
       clip-path="url(#clipPath45)" />
    <path
       id="path46"
       d="m 0,0 h 27.503 c 1.912,0 3.462,-1.55 3.462,-3.462 v -27.503 c 0,-1.913 -1.55,-3.463 -3.462,-3.463 H 0 c -1.912,0 -3.462,1.55 -3.462,3.463 V -3.462 C -3.462,-1.55 -1.912,0 0,0"
       style="fill:#e0c251;fill-opacity:1;fill-rule:nonzero;stroke:none"
       transform="matrix(1.3333333,0,0,-1.3333333,76.579067,198.21627)"
       clip-path="url(#clipPath47)" />
  </g>
</svg>
